<svg width="32" height="32" viewBox="0 0 32 32" fill="none" xmlns="http://www.w3.org/2000/svg">
<path d="M11.8169 12.4889C11.8169 10.1598 9.93895 8.27222 7.6218 8.27222C5.30466 8.27222 3.42667 10.1598 3.42667 12.4889C3.42667 14.8179 5.30466 16.7055 7.6218 16.7055C9.93895 16.7055 11.8169 14.8179 11.8169 12.4889Z" fill="#0A0A0A"/>
<path d="M20.1922 12.4979C20.1922 10.1689 18.3142 8.28125 15.9971 8.28125C13.6799 8.28125 11.8019 10.1689 11.8019 12.4979C11.8019 14.8269 13.6799 16.7146 15.9971 16.7146C18.3142 16.7146 20.1922 14.8269 20.1922 12.4979Z" fill="#0A0A0A"/>
<path d="M28.5766 12.4889C28.5766 10.1598 26.6986 8.27222 24.3814 8.27222C22.0643 8.27222 20.1863 10.1598 20.1863 12.4889C20.1863 14.8179 22.0643 16.7055 24.3814 16.7055C26.6986 16.7055 28.5766 14.8179 28.5766 12.4889Z" fill="#0A0A0A"/>
<path d="M24.3799 19.7833C24.3799 17.4543 22.5019 15.5667 20.1847 15.5667C17.8676 15.5667 15.9896 17.4543 15.9896 19.7833C15.9896 22.1123 17.8676 24 20.1847 24C22.5019 24 24.3799 22.1123 24.3799 19.7833Z" fill="#0A0A0A"/>
<path d="M16.0047 19.7699C16.0047 17.4408 14.1267 15.5532 11.8095 15.5532C9.49238 15.5532 7.61438 17.4408 7.61438 19.7699C7.61438 22.0989 9.49238 23.9865 11.8095 23.9865C14.1267 23.9865 16.0047 22.0989 16.0047 19.7699Z" fill="#0A0A0A"/>
</svg>
